<?xml version="1.0" encoding="UTF-8"?>
<svg id="Layer_1" xmlns="http://www.w3.org/2000/svg" version="1.1" viewBox="0 0 122.9 93.7">
  <!-- Generator: Adobe Illustrator 29.0.1, SVG Export Plug-In . SVG Version: 2.1.0 Build 192)  -->
  <defs>
    <style>
      .st0 {
        fill: #fff;
        fill-rule: evenodd;
      }
    </style>
  </defs>
  <path class="st0" d="M-272.5,74.5h0c1.5,2.6,4.8,3.5,7.5,2,0,0,0,0,0,0l23.7-14.8h0c0,0-5.4-8.6-5.4-8.6h0c0,0-23.7,13.9-23.7,13.9-2.6,1.5-3.5,4.9-2,7.5h-.1ZM-238.3-7.6c15.6,0,28.3,12.7,28.3,28.3,0,4.3-1,8.5-2.8,12.3L-162.6,3.4h0l3.9,6.5h0c0,0-31.5,19.9-31.5,19.9,15.5,1.7,26.7,15.7,24.9,31.2-1.7,15.5-15.7,26.7-31.2,24.9-15.5-1.7-26.7-15.7-24.9-31.2.2-2.1.7-4.2,1.4-6.2l-19.1,12h0c0,0-5.4-8.6-5.4-8.6h0l4.8-2.8c-15.6-.4-28-13.4-27.5-29,.4-15.6,13.4-28,29-27.5ZM-156.5,8.6l3.6-2.2c5.8-3.6,1.1-9.3-3.7-6.5l-3.7,2.2h0l3.9,6.5h0ZM-199.2,62.1l5-14.2h-7.2v-5h12.5l1.2,2-5.9,17.2h-5.6ZM-194.5,36.4c8.9,0,16.2,7.2,16.2,16.2,0,8.9-7.2,16.2-16.2,16.2s-16.2-7.2-16.2-16.2c0,0,0,0,0,0,0-8.9,7.3-16.1,16.2-16.1ZM-241.1,25.2c-.7,0-1.3,0-1.9-.2-.6,0-1.2-.3-1.7-.6-.5-.3-.9-.8-1.2-1.3-.3-.7-.5-1.5-.5-2.3v-2.6c0-.4,0-.8.2-1.2.1-.4.3-.8.6-1.1.3-.3.7-.6,1.1-.6-.4-.2-.8-.5-1.1-.9-.2-.3-.3-.7-.4-1.1,0-.4,0-.9,0-1.3v-2.2c0-.8.2-1.7.7-2.4.4-.6,1-1,1.7-1.3.7-.3,1.5-.4,2.3-.4h3.7c.8,0,1.6.1,2.3.4.7.2,1.3.7,1.7,1.3.5.7.7,1.5.7,2.4v2.2c0,.2,0,.5,0,.7,0,.3,0,.7-.2,1,0,.3-.3.6-.5.9-.2.2-.5.4-.8.4.5,0,1,.4,1.3.9.3.4.4.9.5,1.3,0,.4.1.8.1,1.2v2.6c0,1-.2,2-.7,2.8-.5.6-1.1,1.1-1.8,1.3-.8.2-1.6.3-2.5.3h-3.5ZM-240.2,20.9h1.3c.6,0,.9-.1,1-.3.1-.3.2-.6.2-.9v-1.2c0-.3,0-.6-.3-.9-.2-.2-.5-.4-.9-.4h-1.4c-.2,0-.4,0-.5,0-.1,0-.3.1-.4.3-.1.1-.2.2-.2.4,0,.2,0,.3,0,.5v1.2c0,.3,0,.7.3.9.3.2.6.3,1,.3h0ZM-240.2,13h1.3c.2,0,.5,0,.7-.1.1-.1.2-.3.2-.5,0-.3,0-.5,0-.8v-.8c0-.5,0-.8-.3-.9-.2,0-.4-.1-.7-.1h-1.4c-.2,0-.5,0-.7.1-.2.1-.2.4-.2.9v.8c0,.4,0,.8.2,1.1.2.2.5.2.7.2ZM-239.5-.8c8.9,0,16.2,7.2,16.2,16.2,0,8.9-7.2,16.2-16.2,16.2-8.9,0-16.2-7.2-16.2-16.2,0,0,0,0,0,0,0-8.9,7.2-16.2,16.2-16.2h0Z"/>
</svg>