<?xml version="1.0" encoding="UTF-8"?>
<svg id="Layer_1" xmlns="http://www.w3.org/2000/svg" version="1.1" viewBox="0 0 122.9 122.9">
  <!-- Generator: Adobe Illustrator 29.0.1, SVG Export Plug-In . SVG Version: 2.1.0 Build 192)  -->
  <defs>
    <style>
      .st0 {
        fill: #fff;
        fill-rule: evenodd;
      }
    </style>
  </defs>
  <path class="st0" d="M61.4,0c17,0,32.3,6.9,43.4,18,11.1,11.1,18,26.5,18,43.4s-6.9,32.3-18,43.4c-11.1,11.1-26.5,18-43.4,18s-32.3-6.9-43.4-18C6.9,93.8,0,78.4,0,61.4S6.9,29.1,18,18C29.1,6.9,44.5,0,61.4,0h0ZM76.8,117.1h-.1c0,0,6.9-23.2,6.9-23.2l-14.2-15.8-16.8-.2-13.3,16.6,6.7,22.3h-.2c5,1.5,10.2,2.2,15.5,2.2s10.5-.7,15.4-2.1h0ZM12.2,91.6h24.3c0,.1,12.7-15.8,12.7-15.8l-5.3-16.1-21.4-9.3-18.8,13.7c.5,10.1,3.5,19.4,8.4,27.5h0ZM16.8,24.9l7.4,22.1,20,8.7,15.4-12v-22.8l-19.1-13.3c-7.5,2.9-14.3,7.4-19.9,13s-2.6,2.8-3.8,4.2h0ZM81.7,7.4l-18.4,13.4v22.9l14.5,11.2,20.8-8.9,7.2-21.5c-1.1-1.4-2.3-2.6-3.5-3.9-5.8-5.8-12.8-10.3-20.6-13.2h0ZM119.1,64.4h0s-20-14.5-20-14.5l-19.8,8.5-6.1,18,13.7,15.2c0,0,0,.1.1.2h23.6c4.9-8.1,8-17.4,8.5-27.4h0Z"/>
</svg>